# xmcd
#
# Track frame offsets: 
#        150
#        14762
#        27514
#        44084
#        60160
#        79562
#        97951
#        112704
#        138154
#        157920
#        173899
#        187124
#        203974
#
# Disc length: 2915 seconds
#
# Revision: 7
# Processed by: cddbd v1.5.2PL0 Copyright (c) Steve Scherf et al.
# Submitted via: ExactAudioCopy v0.99pb5
#
DISCID=a30b610d
DTITLE=Brooks and Dunn - Hillbilly deluxe
DYEAR=2005
DGENRE=Contemporary Country
TTITLE0=Play something country
TTITLE1=She's about as lonely as I'm going to let her get
TTITLE2=My heart's not a hotel
TTITLE3=Whiskey do my talkin'
TTITLE4=Hillbilly deluxe
TTITLE5=One more roll of the dice
TTITLE6=Just another neon night
TTITLE7=Believe
TTITLE8=Building bridges
TTITLE9=Her west was wilder
TTITLE10=I may never get over you
TTITLE11=She likes to get out of town
TTITLE12=Again
EXTD=
EXTT0=
EXTT1=
EXTT2=
EXTT3=
EXTT4=
EXTT5=
EXTT6=
EXTT7=
EXTT8=
EXTT9=
EXTT10=
EXTT11=
EXTT12=
PLAYORDER=
